<?xml version="1.0" encoding="UTF-8" standalone="no"?>
<!-- Created with Inkscape (http://www.inkscape.org/) -->

<svg
   version="1.1"
   id="svg2"
   width="289.60052"
   height="73.510071"
   viewBox="0 0 289.60053 73.510071"
   sodipodi:docname="bedboss.svg"
   xml:space="preserve"
   inkscape:version="1.2.2 (1:1.2.2+202212051552+b0a8486541)"
   xmlns:inkscape="http://www.inkscape.org/namespaces/inkscape"
   xmlns:sodipodi="http://sodipodi.sourceforge.net/DTD/sodipodi-0.dtd"
   xmlns="http://www.w3.org/2000/svg"
   xmlns:svg="http://www.w3.org/2000/svg"><defs
     id="defs6" /><sodipodi:namedview
     id="namedview4"
     pagecolor="#ffffff"
     bordercolor="#666666"
     borderopacity="1.0"
     inkscape:showpageshadow="2"
     inkscape:pageopacity="0.0"
     inkscape:pagecheckerboard="0"
     inkscape:deskcolor="#d1d1d1"
     showgrid="false"
     inkscape:zoom="4.1809311"
     inkscape:cx="114.08942"
     inkscape:cy="23.320164"
     inkscape:window-width="1846"
     inkscape:window-height="1136"
     inkscape:window-x="0"
     inkscape:window-y="0"
     inkscape:window-maximized="1"
     inkscape:current-layer="g8" /><g
     inkscape:groupmode="layer"
     inkscape:label="Image"
     id="g8"
     transform="translate(-155.53586,-26.794986)"><g
       id="g1720"
       transform="matrix(0.75018088,0,0,0.75018088,64.531272,16.482923)"><text
         id="text5673-5"
         y="72.291725"
         x="149.50008"
         style="font-style:normal;font-variant:normal;font-weight:normal;font-stretch:normal;font-size:8.82973px;line-height:100%;font-family:Arial;-inkscape-font-specification:Arial;font-variant-ligatures:normal;font-variant-position:normal;font-variant-caps:normal;font-variant-numeric:normal;font-variant-alternates:normal;font-feature-settings:normal;text-indent:0;text-align:center;text-decoration:none;text-decoration-line:none;text-decoration-style:solid;text-decoration-color:#000000;letter-spacing:0px;word-spacing:0px;text-transform:none;writing-mode:lr-tb;direction:ltr;text-orientation:mixed;dominant-baseline:auto;baseline-shift:baseline;text-anchor:middle;white-space:normal;shape-padding:0;vector-effect:none;fill:#000001;fill-opacity:1;stroke:none;stroke-width:0.557882;stroke-linecap:butt;stroke-linejoin:miter;stroke-miterlimit:4;stroke-dasharray:none;stroke-dashoffset:0;stroke-opacity:1;marker:none"
         xml:space="preserve"><tspan
           style="stroke-width:0.557882"
           y="72.291725"
           x="149.50008"
           id="tspan5671-3"
           sodipodi:role="line">BED</tspan></text><text
         id="text5673-56"
         y="72.291725"
         x="206.51782"
         style="font-style:normal;font-variant:normal;font-weight:normal;font-stretch:normal;font-size:8.82973px;line-height:100%;font-family:Arial;-inkscape-font-specification:Arial;font-variant-ligatures:normal;font-variant-position:normal;font-variant-caps:normal;font-variant-numeric:normal;font-variant-alternates:normal;font-feature-settings:normal;text-indent:0;text-align:center;text-decoration:none;text-decoration-line:none;text-decoration-style:solid;text-decoration-color:#000000;letter-spacing:0px;word-spacing:0px;text-transform:none;writing-mode:lr-tb;direction:ltr;text-orientation:mixed;dominant-baseline:auto;baseline-shift:baseline;text-anchor:middle;white-space:normal;shape-padding:0;vector-effect:none;fill:#000001;fill-opacity:1;stroke:none;stroke-width:0.557882;stroke-linecap:butt;stroke-linejoin:miter;stroke-miterlimit:4;stroke-dasharray:none;stroke-dashoffset:0;stroke-opacity:1;marker:none"
         xml:space="preserve"><tspan
           style="stroke-width:0.557882"
           y="72.291725"
           x="206.51782"
           id="tspan5671-2"
           sodipodi:role="line">BED</tspan></text><g
         id="g890"
         transform="matrix(-1,0,0,1,345.83549,0)"><path
           d="m 170.03019,13.746102 c -26.90688,0 -48.72,21.81312 -48.72,48.72 0,26.90688 21.81312,48.719998 48.72,48.719998 26.90688,0 48.72,-21.813118 48.72,-48.719998 0,-26.90688 -21.81312,-48.72 -48.72,-48.72 z m 0,94.079998 c -25.01184,0 -45.36,-20.348158 -45.36,-45.359998 0,-25.01184 20.34816,-45.36 45.36,-45.36 25.01184,0 45.36,20.34816 45.36,45.36 0,25.01184 -20.34816,45.359998 -45.36,45.359998 z"
           id="path293"
           style="fill:#000000;stroke-width:1.12" /><path
           fill="#000000"
           d="m 144.12677,88.788327 c 0,0 0.67312,0.39872 1.85136,1.09648 0.60032,0.33824 1.28016,0.77168 2.22208,1.18608 0.9128,0.40992 1.93648,0.9688 3.09232,1.38096 1.16032,0.40768 2.38112,0.96096 3.77216,1.28576 0.68768,0.18704 1.3944,0.37968 2.1168,0.57568 0.74144,0.13328 1.49968,0.2688 2.27024,0.40656 0.76832,0.1568 1.56576,0.2296 2.37664,0.29008 0.81088,0.04704 1.62512,0.19264 2.46064,0.14 0.83328,-0.0168 1.67216,-0.03248 2.51552,-0.04928 0.84,-0.09184 1.68448,-0.18368 2.52784,-0.27664 0.84896,-0.06496 1.66656,-0.32928 2.49648,-0.4872 l 1.23424,-0.28224 1.19728,-0.3808 c 1.61504,-0.44464 3.08896,-1.16816 4.53488,-1.79984 1.3776,-0.75712 2.744,-1.44144 3.89536,-2.2904 0.588,-0.40656 1.17152,-0.78512 1.71024,-1.1816 0.5152,-0.42448 1.01248,-0.8344 1.49072,-1.22752 0.98,-0.75712 1.75952,-1.57136 2.47296,-2.26576 0.35168,-0.35056 0.6944,-0.6664 0.9856,-0.98112 0.28224,-0.32256 0.54096,-0.61936 0.77392,-0.88704 0.91616,-1.07968 1.4392,-1.6968 1.4392,-1.6968 0.64064,-0.756 0.54656,-1.8872 -0.20832,-2.52784 -0.66752,-0.56672 -1.62848,-0.56 -2.28368,-0.03024 l -0.0952,0.07728 c 0,0 -0.58912,0.47488 -1.6184,1.3048 -0.49952,0.42896 -1.12224,0.92624 -1.86032,1.456 -0.7336,0.53536 -1.53104,1.17712 -2.46848,1.76176 -0.46032,0.30352 -0.93856,0.62048 -1.43472,0.94752 -0.5096,0.29456 -1.03824,0.5992 -1.58032,0.9128 -1.06176,0.66864 -2.28368,1.14464 -3.48096,1.76176 -1.2544,0.48048 -2.53456,1.00912 -3.88528,1.372 l -1.00576,0.308 -1.03488,0.21504 c -0.69552,0.11984 -1.37648,0.33376 -2.08544,0.38416 l -2.10784,0.26656 c -0.70896,0.02352 -1.41456,0.04592 -2.11456,0.06944 -0.69888,0.05488 -1.4,-0.0448 -2.08992,-0.04928 -0.69104,-0.01792 -1.37536,-0.0448 -2.04624,-0.15568 -0.67312,-0.08064 -1.33504,-0.16016 -1.98352,-0.23856 -0.64624,-0.12656 -1.27904,-0.24976 -1.89392,-0.3696 -1.23984,-0.20048 -2.38448,-0.5824 -3.46528,-0.8344 -1.07968,-0.27216 -2.00144,-0.63168 -2.8672,-0.88256 -0.84224,-0.24304 -1.6352,-0.56896 -2.27136,-0.8064 -1.28576,-0.46928 -2.02048,-0.73808 -2.02048,-0.73808 -0.93296,-0.34048 -1.9656,0.14 -2.3072,1.07296 -0.3024,0.82768 0.0437,1.73488 0.7728,2.1672 z"
           id="path295"
           style="stroke-width:1.12" /><g
           transform="matrix(-0.15329483,0,0,0.15329483,231.55894,-2.7573673)"
           id="g2987"><path
             inkscape:connector-curvature="0"
             style="fill:#000000;fill-opacity:1;stroke:none"
             d="m 40,0 v 20 h 20 20 20 20 20 20 v 20 h 20 v 20 h 20 v 20 h 20 v 20 h 20 20 20 20 20 20 V 80 h 20 V 60 h 20 V 40 h 20 20 v 20 h 20 v 20 h 20 20 20 20 20 20 20 V 60 h 20 V 40 h 20 V 20 0 H 600 580 560 540 520 500 480 460 440 420 400 380 360 340 320 300 280 260 240 220 200 180 160 140 120 100 80 60 Z m 0,20 H 20 0 v 20 h 20 20 z"
             transform="translate(45.883117,292.76069)"
             id="path2989" /><path
             inkscape:connector-curvature="0"
             style="fill:#ffffff;fill-opacity:1;stroke:none"
             d="m 200,20 v 20 h 20 V 20 Z m 20,20 v 20 h 20 V 40 Z m 20,0 h 20 V 20 h -20 z m 20,0 v 20 h 20 V 40 Z m 20,20 v 20 h 20 V 60 Z m -20,0 h -20 v 20 h 20 z"
             id="path2991"
             transform="translate(45.883117,292.76069)" /><path
             inkscape:connector-curvature="0"
             style="fill:#ffffff;fill-opacity:1;stroke:none"
             d="m 485.88312,312.76069 h 20 v 20 h 20 v -20 h 20 v 20 h 20 v 20 h -20 v -20 h -20 v 20 h -20 v -20 h -20 z"
             id="path2993" /></g></g></g><g
       id="g1790"
       transform="translate(13.106782,-195.95114)"><g
         id="g742"
         transform="matrix(0.20650738,0,0,0.20650738,235.40031,78.340392)"><path
           d="m 42.8,64.7 c 0.6,0.3 1.3,0.6 1.9,0.8 0.2,0.1 0.3,0.2 0.4,0.5 l 0.6,5.8 c 0.1,0.9 0.9,1.6 1.8,1.6 h 5 c 0.9,0 1.7,-0.7 1.8,-1.6 L 54.9,66 c 0,-0.2 0.2,-0.4 0.4,-0.5 0.7,-0.2 1.3,-0.5 1.9,-0.8 0.2,-0.1 0.4,-0.1 0.6,0.1 l 4.6,3.7 c 0.7,0.6 1.8,0.5 2.5,-0.1 l 3.6,-3.6 c 0.7,-0.7 0.7,-1.7 0.1,-2.5 l -3.7,-4.6 c -0.1,-0.2 -0.2,-0.4 -0.1,-0.6 0.3,-0.6 0.6,-1.3 0.8,-1.9 0.1,-0.2 0.2,-0.3 0.5,-0.4 l 5.8,-0.6 c 0.9,-0.1 1.6,-0.9 1.6,-1.8 v -5 c 0,-0.9 -0.7,-1.7 -1.6,-1.8 L 66,45.1 c -0.2,0 -0.4,-0.2 -0.5,-0.4 C 65.3,44 65,43.4 64.7,42.8 64.6,42.6 64.6,42.4 64.8,42.2 l 3.7,-4.6 c 0.6,-0.7 0.5,-1.8 -0.1,-2.5 l -3.6,-3.6 c -0.7,-0.7 -1.7,-0.7 -2.5,-0.1 l -4.6,3.7 c -0.2,0.1 -0.4,0.2 -0.6,0.1 -0.6,-0.3 -1.3,-0.6 -1.9,-0.8 -0.2,-0.1 -0.3,-0.2 -0.4,-0.5 l -0.6,-5.8 c -0.1,-0.9 -0.9,-1.6 -1.8,-1.6 h -5 c -0.9,0 -1.7,0.7 -1.8,1.6 L 45.1,34 c 0,0.2 -0.2,0.4 -0.4,0.5 -0.7,0.2 -1.3,0.5 -1.9,0.8 -0.2,0.1 -0.4,0.1 -0.6,-0.1 L 37.6,31.5 C 36.9,30.9 35.8,31 35.1,31.6 l -3.6,3.6 c -0.7,0.7 -0.7,1.7 -0.1,2.5 l 3.7,4.6 c 0.1,0.2 0.2,0.4 0.1,0.6 -0.3,0.6 -0.6,1.3 -0.8,1.9 -0.1,0.2 -0.2,0.3 -0.5,0.4 l -5.8,0.6 c -0.9,0.1 -1.6,0.9 -1.6,1.8 v 5 c 0,0.9 0.7,1.7 1.6,1.8 l 5.8,0.6 c 0.2,0 0.4,0.2 0.5,0.4 0.2,0.7 0.5,1.3 0.8,1.9 0.1,0.2 0.1,0.4 -0.1,0.6 l -3.7,4.6 c -0.6,0.7 -0.5,1.8 0.1,2.5 l 3.6,3.6 c 0.7,0.7 1.7,0.7 2.5,0.1 L 42.2,65 c 0.2,-0.3 0.4,-0.4 0.6,-0.3 z M 50,41.3 c 4.8,0 8.7,3.9 8.7,8.7 0,4.8 -3.9,8.7 -8.7,8.7 -4.8,0 -8.7,-3.9 -8.7,-8.7 0,-4.8 3.9,-8.7 8.7,-8.7 z"
           id="path736" /><path
           d="M 14.5,50 C 14.5,30.4 30.4,14.5 50,14.5 h 0.7 l -2.9,2.9 c -1,1 -1,2.5 0,3.5 0.5,0.5 1.1,0.7 1.7,0.7 0.6,0 1.3,-0.2 1.7,-0.7 l 7.1,-7.1 c 1,-1 1,-2.5 0,-3.5 L 51.2,3.2 c -1,-1 -2.5,-1 -3.5,0 -1,1 -1,2.5 0,3.5 l 2.9,2.9 H 50 C 27.7,9.6 9.6,27.7 9.6,50 c 0,12.9 6.2,25.1 16.6,32.6 0.4,0.3 0.9,0.5 1.4,0.5 0.8,0 1.5,-0.3 2,-1 C 30.4,81 30.2,79.5 29.1,78.7 20,72 14.5,61.3 14.5,50 Z"
           id="path738" /><path
           d="M 90.4,50 C 90.4,37.1 84.2,24.9 73.8,17.4 72.7,16.6 71.2,16.8 70.4,17.9 69.6,19 69.8,20.5 70.9,21.3 80,28 85.5,38.7 85.5,50 85.5,69.6 69.6,85.5 50,85.5 h -0.7 l 2.9,-2.9 c 1,-1 1,-2.5 0,-3.5 -1,-1 -2.5,-1 -3.5,0 l -7.1,7.1 c -1,1 -1,2.5 0,3.5 l 7.1,7.1 c 0.5,0.5 1.1,0.7 1.7,0.7 0.6,0 1.3,-0.2 1.7,-0.7 1,-1 1,-2.5 0,-3.5 L 49.2,90.4 H 50 C 72.3,90.4 90.4,72.3 90.4,50 Z"
           id="path740" /></g><g
         id="g810"
         transform="matrix(0.34917681,0,0,0.34917681,234.55202,53.651201)"><path
           d="m 11,29 h 4 4 4 4 5 V 27 H 28 V 12 c 0,-0.553 -0.447,-1 -1,-1 h -4 c -0.553,0 -1,0.447 -1,1 V 27 H 20 V 3 C 20,2.447 19.553,2 19,2 H 15 C 14.447,2 14,2.447 14,3 V 27 H 12 V 16 c 0,-0.553 -0.447,-1 -1,-1 H 7 C 6.447,15 6,15.447 6,16 V 27 H 2 v 2 H 7 Z M 24,13 h 2 V 27 H 24 Z M 16,4 h 2 V 27 H 16 Z M 8,17 h 2 V 27 H 8 Z"
           id="path4" /><path
           d="M 61.905,13.491 C 61.862,13.119 61.81,12.749 61.736,12.385 61.734,12.374 61.73,12.364 61.728,12.354 61.221,9.891 60.011,7.626 58.192,5.807 56.373,3.988 54.108,2.778 51.645,2.271 51.634,2.269 51.624,2.265 51.614,2.263 51.25,2.189 50.88,2.137 50.508,2.094 50.444,2.087 50.381,2.072 50.317,2.066 49.882,2.023 49.443,2 49,2 48.557,2 48.118,2.023 47.683,2.067 47.618,2.074 47.556,2.088 47.492,2.095 47.12,2.138 46.75,2.19 46.386,2.264 46.375,2.266 46.365,2.27 46.355,2.272 43.892,2.779 41.627,3.989 39.808,5.808 39.798,5.818 39.795,5.832 39.785,5.842 37.448,8.194 36,11.43 36,15 c 0,3.57 1.448,6.806 3.785,9.158 0.01,0.01 0.013,0.024 0.023,0.034 1.819,1.819 4.084,3.029 6.547,3.536 0.011,0.002 0.021,0.006 0.031,0.008 0.364,0.074 0.734,0.126 1.106,0.169 0.064,0.007 0.127,0.022 0.191,0.028 C 48.118,27.977 48.557,28 49,28 56.168,28 62,22.168 62,15 62,14.557 61.977,14.118 61.933,13.683 61.927,13.618 61.912,13.556 61.905,13.491 Z M 43.745,5.339 C 43.764,5.329 43.783,5.32 43.801,5.31 44.081,5.159 44.369,5.021 44.662,4.895 44.712,4.873 44.763,4.853 44.814,4.832 45.076,4.724 45.343,4.626 45.615,4.538 45.691,4.513 45.767,4.489 45.844,4.466 46.094,4.391 46.348,4.327 46.605,4.27 46.699,4.249 46.792,4.226 46.887,4.208 47.139,4.159 47.396,4.122 47.653,4.091 47.749,4.079 47.844,4.063 47.94,4.054 48.289,4.02 48.642,4 49,4 c 0.358,0 0.711,0.02 1.06,0.054 0.096,0.009 0.191,0.026 0.287,0.037 0.258,0.032 0.514,0.068 0.766,0.117 0.095,0.018 0.188,0.041 0.282,0.062 0.257,0.057 0.511,0.121 0.761,0.196 0.077,0.023 0.153,0.047 0.229,0.072 0.272,0.088 0.539,0.185 0.801,0.294 0.051,0.021 0.102,0.041 0.152,0.063 0.294,0.127 0.581,0.265 0.861,0.415 0.019,0.01 0.038,0.019 0.056,0.029 0.633,0.346 1.228,0.753 1.779,1.213 L 49,13.586 41.966,6.552 c 0.551,-0.459 1.145,-0.867 1.779,-1.213 z m 13.703,2.627 c 0.237,0.285 0.462,0.58 0.671,0.887 0,0 10e-4,10e-4 10e-4,10e-4 0.196,0.289 0.377,0.589 0.545,0.897 0.003,0.005 0.006,0.011 0.009,0.016 0.335,0.617 0.613,1.27 0.826,1.951 0.005,0.018 0.01,0.036 0.015,0.053 0.091,0.295 0.166,0.597 0.232,0.902 0.016,0.075 0.031,0.149 0.046,0.224 0.053,0.274 0.095,0.552 0.128,0.833 0.007,0.065 0.018,0.13 0.025,0.195 0.002,0.025 0.002,0.05 0.004,0.075 h -8.535 z m -16.896,0 7.034,7.034 -7.034,7.034 C 38.961,20.125 38,17.673 38,15 38,12.327 38.961,9.875 40.552,7.966 Z m 7.388,17.98 C 47.843,25.937 47.748,25.92 47.652,25.908 47.395,25.876 47.139,25.84 46.887,25.791 46.792,25.773 46.698,25.75 46.604,25.729 c -0.257,-0.057 -0.511,-0.121 -0.76,-0.196 -0.077,-0.023 -0.153,-0.047 -0.229,-0.072 -0.272,-0.088 -0.539,-0.185 -0.801,-0.294 -0.051,-0.021 -0.102,-0.041 -0.152,-0.063 -0.293,-0.126 -0.581,-0.264 -0.86,-0.415 -0.019,-0.01 -0.039,-0.02 -0.058,-0.03 -0.633,-0.346 -1.228,-0.753 -1.778,-1.212 L 49.414,16 h 10.535 c -0.002,0.021 -10e-4,0.044 -0.003,0.065 -0.014,0.141 -0.039,0.277 -0.058,0.416 -0.029,0.217 -0.057,0.435 -0.099,0.648 -0.029,0.146 -0.068,0.289 -0.103,0.433 -0.048,0.2 -0.095,0.4 -0.154,0.596 -0.044,0.146 -0.097,0.289 -0.146,0.432 -0.065,0.187 -0.129,0.374 -0.204,0.556 -0.058,0.143 -0.124,0.282 -0.188,0.422 -0.081,0.176 -0.162,0.35 -0.251,0.521 -0.072,0.137 -0.15,0.271 -0.227,0.405 -0.095,0.164 -0.193,0.328 -0.296,0.487 -0.085,0.13 -0.174,0.258 -0.264,0.384 -0.109,0.154 -0.222,0.305 -0.339,0.453 -0.097,0.122 -0.196,0.241 -0.298,0.359 -0.123,0.142 -0.249,0.281 -0.379,0.417 -0.107,0.112 -0.217,0.223 -0.329,0.331 -0.136,0.13 -0.275,0.256 -0.417,0.379 -0.117,0.102 -0.235,0.202 -0.357,0.299 -0.148,0.118 -0.3,0.229 -0.453,0.339 -0.126,0.09 -0.252,0.181 -0.382,0.266 -0.159,0.104 -0.324,0.201 -0.489,0.297 -0.133,0.078 -0.265,0.156 -0.402,0.229 -0.171,0.09 -0.348,0.172 -0.525,0.253 -0.138,0.064 -0.275,0.13 -0.417,0.189 -0.185,0.076 -0.375,0.141 -0.564,0.207 -0.141,0.049 -0.28,0.103 -0.423,0.146 -0.201,0.061 -0.408,0.109 -0.615,0.158 -0.138,0.033 -0.273,0.072 -0.413,0.1 -0.232,0.046 -0.469,0.077 -0.706,0.108 -0.12,0.016 -0.236,0.04 -0.357,0.052 C 49.733,25.98 49.369,26 49,26 48.642,26 48.289,25.98 47.94,25.946 Z"
           id="path6" /><path
           d="m 18.174,48.24 8.341,4.634 c 0.343,0.19 0.769,0.162 1.085,-0.074 L 43,41.25 l 11.4,8.55 1.199,-1.6 -12,-9 c -0.355,-0.268 -0.844,-0.268 -1.199,0 L 26.919,50.81 18.485,46.125 c -0.39,-0.217 -0.877,-0.148 -1.192,0.167 l -9,9 1.414,1.414 z"
           id="path8" /><path
           d="M 61,32 H 3 c -0.553,0 -1,0.447 -1,1 v 28 c 0,0.553 0.447,1 1,1 h 58 c 0.553,0 1,-0.447 1,-1 V 33 c 0,-0.553 -0.447,-1 -1,-1 z M 60,60 H 4 V 34 h 56 z"
           id="path10-1" /></g><g
         id="g1479"
         transform="translate(-2,5.8718394)"><g
           id="g904"
           transform="matrix(0.27435621,0,0,0.27435621,233.47488,19.191541)"><path
             sodipodi:nodetypes="sscssssssss"
             style="clip-rule:evenodd;fill:#ffffff;fill-rule:nonzero;stroke-width:0.497461;image-rendering:optimizeQuality;shape-rendering:geometricPrecision;text-rendering:geometricPrecision"
             inkscape:connector-curvature="0"
             id="path837"
             d="m 24.811308,5.0808387 h 39.645275 c 2.513269,0 4.823515,0.9521036 6.601719,2.7372954 L 85.668893,22.428717 c 1.785173,1.785192 2.737273,4.081441 2.737273,6.601713 v 55.457205 c 0,5.145557 -4.186459,9.332009 -9.331987,9.332009 H 24.811308 c -5.145565,0 -9.332024,-4.186452 -9.332024,-9.332009 V 14.412848 c 0,-5.1455575 4.186459,-9.3320093 9.332024,-9.3320093 z"
             class="fil0" /><path
             class="fil0"
             d="m 24.811246,5.0808387 h 39.645275 c 2.513269,0 4.823515,0.9521036 6.60172,2.7372954 l 14.61059,14.6105829 c 1.785173,1.785192 2.737273,4.081441 2.737273,6.601713 v 55.457205 c 0,5.145557 -4.186459,9.332009 -9.331987,9.332009 H 24.811246 c -5.145565,0 -9.332024,-4.186452 -9.332024,-9.332009 V 14.412848 c 0,-5.1455575 4.186459,-9.3320093 9.332024,-9.3320093 z M 69.686083,13.0477 v 10.70416 c 0,1.28114 1.050108,2.331252 2.331263,2.331252 H 82.686499 L 82.364524,25.733076 69.686157,13.054706 Z M 83.736608,30.752616 H 72.017346 c -3.85744,0 -7.00076,-3.143338 -7.00076,-7.000756 V 9.7783478 C 64.83473,9.757479 64.64542,9.7503985 64.456521,9.7503985 H 24.811246 c -2.562274,0 -4.662528,2.1002285 -4.662528,4.6625055 V 84.48769 c 0,2.562278 2.100254,4.662506 4.662528,4.662506 h 54.262871 c 2.562274,0 4.662491,-2.100228 4.662491,-4.662506 z"
             id="path10"
             inkscape:connector-curvature="0"
             style="clip-rule:evenodd;fill:#000000;fill-rule:nonzero;stroke-width:0.497461;image-rendering:optimizeQuality;shape-rendering:geometricPrecision;text-rendering:geometricPrecision"
             sodipodi:nodetypes="sscsssssssscsscccccsscsssssssc" /><g
             transform="matrix(3.726564,0,0,3.726564,-583.31451,-275.24051)"
             style="stroke-width:0.710581"
             id="g5634"><path
               style="fill:none;fill-rule:evenodd;stroke:#000000;stroke-width:0.501355;stroke-linecap:butt;stroke-linejoin:miter;stroke-miterlimit:4;stroke-dasharray:none;stroke-opacity:1"
               d="m 165.26847,93.135965 h -2.04542"
               id="path1077"
               inkscape:connector-curvature="0" /><path
               style="fill:none;fill-rule:evenodd;stroke:#000000;stroke-width:0.501355;stroke-linecap:butt;stroke-linejoin:miter;stroke-miterlimit:4;stroke-dasharray:none;stroke-opacity:1"
               d="m 165.26847,90.063138 h -2.04542"
               id="path1079"
               inkscape:connector-curvature="0" /><path
               inkscape:connector-curvature="0"
               id="path1081"
               d="m 165.26847,86.990311 h -2.04542"
               style="fill:none;fill-rule:evenodd;stroke:#000000;stroke-width:0.501355;stroke-linecap:butt;stroke-linejoin:miter;stroke-miterlimit:4;stroke-dasharray:none;stroke-opacity:1" /><path
               style="fill:none;fill-rule:evenodd;stroke:#000000;stroke-width:0.501355;stroke-linecap:butt;stroke-linejoin:miter;stroke-miterlimit:4;stroke-dasharray:none;stroke-opacity:1"
               d="m 165.26847,83.917484 h -2.04542"
               id="path1083"
               inkscape:connector-curvature="0" /><path
               inkscape:connector-curvature="0"
               id="path5623"
               d="m 165.26847,95.781798 h -2.04542"
               style="fill:none;fill-rule:evenodd;stroke:#000000;stroke-width:0.501355;stroke-linecap:butt;stroke-linejoin:miter;stroke-miterlimit:4;stroke-dasharray:none;stroke-opacity:1" /></g><g
             transform="matrix(3.726564,0,0,3.726564,-583.31451,-275.24051)"
             style="stroke-width:0.710581"
             id="g5648"><path
               inkscape:connector-curvature="0"
               id="path1601"
               d="M 177.75234,93.135965 H 173.0013"
               style="fill:none;fill-rule:evenodd;stroke:#000000;stroke-width:0.501355;stroke-linecap:butt;stroke-linejoin:miter;stroke-miterlimit:4;stroke-dasharray:none;stroke-opacity:1" /><path
               inkscape:connector-curvature="0"
               id="path1603"
               d="M 177.75234,90.063138 H 173.0013"
               style="fill:none;fill-rule:evenodd;stroke:#000000;stroke-width:0.501355;stroke-linecap:butt;stroke-linejoin:miter;stroke-miterlimit:4;stroke-dasharray:none;stroke-opacity:1" /><path
               style="fill:none;fill-rule:evenodd;stroke:#000000;stroke-width:0.501355;stroke-linecap:butt;stroke-linejoin:miter;stroke-miterlimit:4;stroke-dasharray:none;stroke-opacity:1"
               d="M 177.75234,86.990311 H 173.0013"
               id="path1605"
               inkscape:connector-curvature="0" /><path
               inkscape:connector-curvature="0"
               id="path1607"
               d="M 177.75234,83.917484 H 173.0013"
               style="fill:none;fill-rule:evenodd;stroke:#000000;stroke-width:0.501355;stroke-linecap:butt;stroke-linejoin:miter;stroke-miterlimit:4;stroke-dasharray:none;stroke-opacity:1" /><path
               style="fill:none;fill-rule:evenodd;stroke:#000000;stroke-width:0.501355;stroke-linecap:butt;stroke-linejoin:miter;stroke-miterlimit:4;stroke-dasharray:none;stroke-opacity:1"
               d="M 177.75234,95.781798 H 173.0013"
               id="path5625"
               inkscape:connector-curvature="0" /></g><g
             transform="matrix(3.726564,0,0,3.726564,-583.31451,-275.24051)"
             style="stroke-width:0.710581"
             id="g5641"><path
               style="fill:none;fill-rule:evenodd;stroke:#000000;stroke-width:0.501355;stroke-linecap:butt;stroke-linejoin:miter;stroke-miterlimit:4;stroke-dasharray:none;stroke-opacity:1"
               d="m 171.50921,93.135965 h -4.75104"
               id="path1611"
               inkscape:connector-curvature="0" /><path
               style="fill:none;fill-rule:evenodd;stroke:#000000;stroke-width:0.501355;stroke-linecap:butt;stroke-linejoin:miter;stroke-miterlimit:4;stroke-dasharray:none;stroke-opacity:1"
               d="m 171.50921,90.063138 h -4.75104"
               id="path1613"
               inkscape:connector-curvature="0" /><path
               inkscape:connector-curvature="0"
               id="path1615"
               d="m 171.50921,86.990311 h -4.75104"
               style="fill:none;fill-rule:evenodd;stroke:#000000;stroke-width:0.501355;stroke-linecap:butt;stroke-linejoin:miter;stroke-miterlimit:4;stroke-dasharray:none;stroke-opacity:1" /><path
               style="fill:none;fill-rule:evenodd;stroke:#000000;stroke-width:0.501355;stroke-linecap:butt;stroke-linejoin:miter;stroke-miterlimit:4;stroke-dasharray:none;stroke-opacity:1"
               d="m 171.50921,83.917484 h -4.75104"
               id="path1617"
               inkscape:connector-curvature="0" /><path
               inkscape:connector-curvature="0"
               id="path5627"
               d="m 171.50921,95.781798 h -4.75104"
               style="fill:none;fill-rule:evenodd;stroke:#000000;stroke-width:0.501355;stroke-linecap:butt;stroke-linejoin:miter;stroke-miterlimit:4;stroke-dasharray:none;stroke-opacity:1" /></g><text
             id="text5673"
             y="26.692873"
             x="40.885281"
             style="font-style:normal;font-variant:normal;font-weight:normal;font-stretch:normal;font-size:16.8876px;line-height:100%;font-family:Arial;-inkscape-font-specification:Arial;font-variant-ligatures:normal;font-variant-position:normal;font-variant-caps:normal;font-variant-numeric:normal;font-variant-alternates:normal;font-feature-settings:normal;text-indent:0;text-align:center;text-decoration:none;text-decoration-line:none;text-decoration-style:solid;text-decoration-color:#000000;letter-spacing:0px;word-spacing:0px;text-transform:none;writing-mode:lr-tb;direction:ltr;text-orientation:mixed;dominant-baseline:auto;baseline-shift:baseline;text-anchor:middle;white-space:normal;shape-padding:0;opacity:1;vector-effect:none;fill:#000001;fill-opacity:1;stroke:none;stroke-width:1.067;stroke-linecap:butt;stroke-linejoin:miter;stroke-miterlimit:4;stroke-dasharray:none;stroke-dashoffset:0;stroke-opacity:1;marker:none"
             xml:space="preserve"><tspan
               style="stroke-width:1.067"
               y="26.692873"
               x="40.885281"
               id="tspan5671"
               sodipodi:role="line">BED</tspan></text></g><path
           d="m 257.53538,25.338431 m 0.43414,0.159947 m 3.06185,0.628364 c 0,-2.833351 -2.30781,-5.141162 -5.14117,-5.141162 -2.83334,0 -5.14116,2.307811 -5.14116,5.141162 0,2.833353 2.30782,5.141163 5.14116,5.141163 2.83336,0 5.14117,-2.30781 5.14117,-5.141163 z m -1.14248,0 c 0,2.204988 -1.79369,3.998683 -3.99869,3.998683 -2.20498,0 -3.99867,-1.793695 -3.99867,-3.998683 0,-2.204987 1.79369,-3.998682 3.99867,-3.998682 2.205,0 3.99869,1.793695 3.99869,3.998682 z m -4.39854,2.387785 3.33603,-3.336043 c 0.2285,-0.228496 0.2285,-0.582666 0,-0.811162 -0.22849,-0.228496 -0.58266,-0.228496 -0.81116,0 l -2.92475,2.936176 -1.45095,-1.450951 c -0.22849,-0.228496 -0.58266,-0.228496 -0.81116,0 -0.2285,0.228496 -0.2285,0.582665 0,0.811161 l 1.85082,1.850819 c 0.11424,0.114248 0.26277,0.171372 0.39987,0.171372 0.1371,0 0.30847,-0.06855 0.4113,-0.171372 z"
           id="path892"
           style="fill:#48ab3e;fill-opacity:1;stroke-width:0.114248" /></g></g><text
       xml:space="preserve"
       style="font-size:50.3092px;line-height:1.25;font-family:Arial;-inkscape-font-specification:'Arial, Normal';font-variant-ligatures:none;stroke-width:2.09622"
       x="237.36528"
       y="81.055191"
       id="text1665"><tspan
         sodipodi:role="line"
         id="tspan1663"
         x="237.36528"
         y="81.055191"
         style="stroke-width:2.09622">BEDboss</tspan></text></g></svg>
